<?xml version="1.0" encoding="UTF-8"?>
<svg width="280" height="256" version="1.1" viewBox="0 0 74.083335 67.733335" xmlns="http://www.w3.org/2000/svg" xmlns:cc="http://creativecommons.org/ns#" xmlns:dc="http://purl.org/dc/elements/1.1/" xmlns:osb="http://www.openswatchbook.org/uri/2009/osb" xmlns:rdf="http://www.w3.org/1999/02/22-rdf-syntax-ns#" xmlns:xlink="http://www.w3.org/1999/xlink">
  <defs>
    <linearGradient id="a" osb:paint="solid">
      <stop stop-color="#52452a" offset="0"/>
    </linearGradient>
    <linearGradient id="c" x1="-129.32" x2="71.7" y1="118.69" y2="118.69" gradientUnits="userSpaceOnUse" xlink:href="#a"/>
    <linearGradient id="b" x1="17.771" x2="84.446" y1="263.13" y2="263.13" gradientTransform="translate(-10.583)" gradientUnits="userSpaceOnUse" xlink:href="#a"/>
<!--    <clipPath id="e">-->
<!--      <use width="100%" height="100%" xlink:href="#d"/>-->
<!--    </clipPath>-->
  </defs>
  <metadata>
    <rdf:RDF>
      <cc:Work rdf:about="">
        <dc:format>image/svg+xml</dc:format>
        <dc:type rdf:resource="http://purl.org/dc/dcmitype/StillImage"/>
        <dc:title/>
      </cc:Work>
    </rdf:RDF>
  </metadata>
  <g>
    <ellipse cx="30.049" cy="33.904" rx="29.131" ry="30.068" fill-opacity=".78431" fill-rule="evenodd"/>
  </g>
  <g transform="translate(0 -229.27)">
    <circle cx="40.525" cy="263.13" r="33.073" fill="url(#b)" fill-rule="evenodd" stroke="#000" stroke-opacity=".78431" stroke-width=".52917"/>
  </g>
  <g>
    <g transform="matrix(.95904 -.0532 .0483 .99788 -65.398 -16.454)">
      <g id="d">
        <path d="m94.084 25.632a32.804 32.804 0 0 0 -20.78 30.513 32.804 32.804 0 0 0 15.658 27.918 36.312 37.189 0 0 1 -11.56 -27.146 36.312 37.189 0 0 1 16.681 -31.285z" fill-opacity=".58036" fill-rule="evenodd"/>
      </g>
    </g>
    <circle cx="44.442" cy="34.247" r="32.804" fill-opacity="0"/>
  </g>
  <g>
    <circle cx="40.787" cy="33.834" r="27.12" fill-rule="evenodd"/>
  </g>
  <g fill="#fff">
    <ellipse cx="47.493" cy="26.836" rx="2.3624" ry="3.2128" fill-opacity=".082353"/>
    <ellipse transform="matrix(.84928 .52794 -.47988 .87733 0 0)" cx="46.284" cy="-7.6031" rx="4.5278" ry="1.4756" fill-opacity=".12549"/>
    <ellipse transform="matrix(.53806 .84291 -.83738 .54663 0 0)" cx="53.794" cy="-30.952" rx="2.723" ry="4.7742" fill-opacity=".13725"/>
    <ellipse cx="55.978" cy="20.392" rx="4.4412" ry="2.6458" fill-opacity=".17647"/>
    <ellipse transform="rotate(-16.39)" cx="39.154" cy="51.131" rx="2.2679" ry="4.1577" fill-opacity=".14902"/>
    <ellipse cx="24.02" cy="26.099" rx="2.8348" ry="3.9688" fill-opacity=".11765"/>
    <ellipse transform="rotate(52.007)" cx="52.182" cy="3.6845" rx="2.3624" ry="3.6853" fill-opacity=".098039"/>
    <ellipse transform="matrix(.84522 .53442 -.50111 .86538 0 0)" cx="59.56" cy="25.371" rx="3.2593" ry="2.4526" fill-opacity=".17255"/>
    <ellipse transform="matrix(.60084 .79937 -.86397 .50355 0 0)" cx="58.329" cy="-7.3621" rx="2.3765" ry="3.396" fill-opacity=".082353"/>
    <ellipse transform="matrix(.957 -.2901 -.26667 .96379 0 0)" cx="77.082" cy="60.398" rx="2.355" ry="4.0113" fill-opacity=".082353"/>
  </g>
</svg>
